Coordinates
version=1
nRows=7
nColumns=40
inDegrees=yes

Units are S.I. units (second, meters, Newtons, ...)
Angles are in degrees.

endheader
time	pelvis_tilt	pelvis_list	pelvis_rotation	pelvis_tx	pelvis_ty	pelvis_tz	hip_flexion_r	hip_adduction_r	hip_rotation_r	knee_angle_r	knee_angle_r_beta	ankle_angle_r	subtalar_angle_r	mtp_angle_r	hip_flexion_l	hip_adduction_l	hip_rotation_l	knee_angle_l	knee_angle_l_beta	ankle_angle_l	subtalar_angle_l	mtp_angle_l	lumbar_extension	lumbar_bending	lumbar_rotation	arm_flex_r	arm_add_r	arm_rot_r	elbow_flex_r	pro_sup_r	wrist_flex_r	wrist_dev_r	arm_flex_l	arm_add_l	arm_rot_l	elbow_flex_l	pro_sup_l	wrist_flex_l	wrist_dev_l
      8.89500000	     -3.28380316	     -4.29300291	     -6.73609836	      0.97493827	      0.93250091	      0.45684842	     23.07275955	     -1.63375295	     -9.63394915	     15.32285749	     15.32285749	      3.65870100	      4.95279781	      3.82442420	      2.35164511	     -4.29892373	    -15.49640160	     13.18709357	     13.18709357	     14.51006062	     -6.70230378	     -6.45807603	     -9.88827678	      2.72647062	      0.07521783	     -9.94774544	    -12.88263304	     -5.65354849	     32.77055622	     46.41180995	      0.00000000	      0.00000000	     21.61119815	    -18.84239919	     -9.89665528	     63.09232743	     46.70596795	      0.00000000	      0.00000000
      8.90835714	     -3.23072333	     -4.31264842	     -6.63599639	      0.97513748	      0.93198248	      0.45817852	     22.33977052	     -1.35595777	    -10.56310069	     13.80703569	     13.80703569	      3.50758619	      6.46446169	      4.41239264	      1.73907829	     -4.34650982	    -15.59490904	     12.87852082	     12.87852082	     14.74894583	     -6.27646378	     -6.68016906	     -9.90403825	      2.80154002	      0.10490809	     -9.59713523	    -12.80723816	     -5.66773186	     33.14793870	     46.39537837	      0.00000000	      0.00000000	     21.64744934	    -18.71791596	    -10.00001170	     63.29525738	     46.72448129	      0.00000000	      0.00000000
      8.92171429	     -3.29617869	     -4.15928168	     -6.52199340	      0.97531047	      0.93109149	      0.45952680	     22.09002464	     -1.28485992	    -11.07708541	     13.21361318	     13.21361318	      3.43667996	      7.09301222	      4.65165593	      1.34933971	     -4.23482850	    -15.64230220	     12.70633038	     12.70633038	     14.99497183	     -5.98668965	     -6.82716867	     -9.73818467	      2.70900640	      0.11383570	     -9.06490723	    -12.70477124	     -5.68007355	     33.57276747	     46.37954640	      0.00000000	      0.00000000	     21.71268725	    -18.53319306	    -10.03161729	     63.44433921	     46.73468073	      0.00000000	      0.00000000
      8.93507143	     -3.39380005	     -4.03535968	     -6.42629480	      0.97566871	      0.93007330	      0.46107568	     22.01002423	     -1.19020023	    -11.29856002	     13.16234637	     13.16234637	      3.41419506	      7.04624189	      4.67485654	      1.05969320	     -4.17778868	    -15.58805207	     12.70304356	     12.70304356	     15.26290855	     -5.98129032	     -6.92866090	     -9.49260389	      2.62906047	      0.26459873	     -8.81112428	    -12.69368167	     -5.68161745	     33.69720719	     46.37621046	      0.00000000	      0.00000000	     21.68108810	    -18.49738746	    -10.03210992	     63.45517077	     46.73512844	      0.00000000	      0.00000000
      8.94842857	     -3.29567060	     -4.02122712	     -6.20966586	      0.97633615	      0.92962205	      0.46255048	     21.36676771	     -1.07896297	    -11.98763081	     12.74501447	     12.74501447	      3.12976593	      7.71621368	      4.36009821	      0.31732849	     -4.19487085	    -15.66387154	     12.26777757	     12.26777757	     15.59761470	     -5.21972709	     -6.85947387	     -9.54831119	      2.71096637	     -0.03439156	     -8.07649579	    -12.64482381	     -5.85778244	     34.84669315	     46.33800988	      0.00000000	      0.00000000	     21.30609025	    -18.32730416	    -10.20989916	     63.55215477	     46.75904932	      0.00000000	      0.00000000
      8.96178571	     -3.38057909	     -3.96431663	     -5.99026941	      0.97697794	      0.92873263	      0.46408332	     21.21711180	     -1.02910749	    -12.16653401	     13.02285646	     13.02285646	      3.07690385	      7.46872169	      4.18805249	      0.01208758	     -4.22350279	    -15.47763861	     12.27358495	     12.27358495	     15.89126364	     -5.11822029	     -6.90932151	     -9.34902027	      2.77209505	      0.08865547	     -7.50391074	    -12.63563944	     -5.88042674	     35.19871124	     46.32817606	      0.00000000	      0.00000000	     21.11673660	    -17.98080452	    -10.13550030	     63.54691428	     46.75355341	      0.00000000	      0.00000000
      8.97514286	     -3.37210210	     -3.96997955	     -5.75686870	      0.97777909	      0.92796748	      0.46573186	     21.04845735	     -0.96844465	    -12.27283133	     13.58753120	     13.58753120	      3.12102434	      6.98888555	      3.81116110	     -0.40636016	     -4.32669609	    -15.27593781	     12.28966754	     12.28966754	     16.21211133	     -5.00411766	     -6.89066321	     -9.21927654	      2.90168161	      0.13423873	     -6.85442651	    -12.69125981	     -5.94524307	     35.67019794	     46.31641998	      0.00000000	      0.00000000	     20.77696264	    -17.62929256	    -10.06610310	     63.45190628	     46.74633625	      0.00000000	      0.00000000
